# xmcd
#
# Track frame offsets:
#	150
#	11906
#	32236
#	52589
#	69102
#	85204
#	106650
#	139845
#	160954
#	175959
#	190630
#	214943
#
# Disc length: 3043 seconds
# Revision: 0
# Processed by: cddbd v1.5.2PL0 Copyright (c) Steve Scherf et al.
# Submitted via: dBpowerAMP V12.0
#
DISCID=970be10c
DTITLE=Joshua Kloyda - Ramblin On
DYEAR=2010
DGENRE=Blues
TTITLE0=Ramblin On
TTITLE1=Walkin With You
TTITLE2=Movin On
TTITLE3=Dark Was The Night
TTITLE4=Coming Home to You
TTITLE5=Light Up My Way
TTITLE6=Into the Unknown
TTITLE7=Day is Done
TTITLE8=Just Another Man
TTITLE9=A Stream's Cry
TTITLE10=Looking Back
TTITLE11=Ramblin On
EXTD=
EXTT0=
EXTT1=
EXTT2=
EXTT3=
EXTT4=
EXTT5=
EXTT6=
EXTT7=
EXTT8=
EXTT9=
EXTT10=
EXTT11=
PLAYORDER=
